<svg xmlns="http://www.w3.org/2000/svg" width="40" height="40" viewBox="0 0 40 40">
  <defs>
    <linearGradient id="grad1" x1="0%" y1="0%" x2="100%" y2="100%">
      <stop offset="0%" style="stop-color:#3498db;stop-opacity:1" />
      <stop offset="100%" style="stop-color:#2980b9;stop-opacity:1" />
    </linearGradient>
  </defs>
  <circle cx="20" cy="20" r="19" fill="url(#grad1)" stroke="#fff" stroke-width="2"/>
  <path d="M20 11c-3.3 0-6 2.7-6 6v2c0 3.3 2.7 6 6 6s6-2.7 6-6v-2c0-3.3-2.7-6-6-6zm0 2c2.2 0 4 1.8 4 4v2c0 2.2-1.8 4-4 4s-4-1.8-4-4v-2c0-2.2 1.8-4 4-4z" fill="#fff"/>
  <circle cx="16" cy="18" r="1.5" fill="#fff"/>
  <circle cx="24" cy="18" r="1.5" fill="#fff"/>
  <path d="M20 22c-1.1 0-2 .9-2 2s.9 2 2 2 2-.9 2-2-.9-2-2-2z" fill="#fff"/>
</svg>